<?xml version="1.0" encoding="UTF-8"?>
<svg id="Layer_1" xmlns="http://www.w3.org/2000/svg" viewBox="0 0 216.43 234.31">
  <defs>
    <style>
      .cls-1 {
        fill: #1c1c1c;
      }
    </style>
  </defs>
  <path class="cls-1" d="M63.61,13.29c-4.11,3.93-8.22,7.85-12.34,11.78C92.65,1.13,132.63,2.23,172.16,31.52c-5.31-7.3-19.76-16.23-33.93-21.66-12.49-4.79-25.44-7.18-38.9-7.05-.07-.64-.15-1.29-.22-1.93,1.76-.31,3.54-.92,5.29-.88,24.6.65,46.95,8.27,66.04,23.69,35.11,28.35,58.72,80.63,38.58,135.86-13.99,38.36-40.08,63.39-79.71,72.65-38.05,8.9-94.84-10.28-112.86-60.26-.45-1.25-1-2.47-1.66-3.62C-8.45,127.76-3.35,89.02,23.43,52.48c9.88-13.49,21.92-25.4,33.13-37.9,1.4-1.56,3.72-2.3,5.61-3.42.47.71.95,1.41,1.42,2.12h.02ZM13.41,126.32c.35,5.48.53,10.98,1.1,16.44,1.51,14.62,5.4,27.89,15.75,39.46,38.22,42.7,93.18,49.77,137.53,16.53,24.66-18.49,41.5-42.62,43.42-73.89,2.46-40-14.26-71.54-47.36-94.44C126.03,4.26,81.19,5.72,45.42,34.66c-1.92,1.55-3.74,3.34-5.18,5.33-18.58,25.77-26.62,54.81-26.83,86.33ZM199.4,170.98c-20.49,28.09-45.9,46.56-79.79,51.15-34.52,4.68-62.77-9.07-88.61-32.72,13.85,25.53,56.46,44.97,88.4,41.4,33.79-3.78,72.26-32.13,79.99-59.82h.01ZM8.94,144.48c.77-13.36,1.15-28.65,2.68-43.82,1.55-15.43,5.84-30.25,13.76-43.84C7.58,76.47-2.32,117.88,8.94,144.48Z"/>
</svg>