<svg xmlns="http://www.w3.org/2000/svg" id="Layer_1" data-name="Layer 1" viewBox="0 0 101.88 17.72">
  <defs/>
  <path d="M3.6 9.94h84.03c3.88 0 7.8.17 11.67 0h.17c1.93 0 1.93-3 0-3H15.44c-3.88 0-7.8-.17-11.67 0H3.6c-1.93 0-1.93 3 0 3Z" class="cls-1"/>
  <path d="m2.54 9.5 6.04 6.04.86.86c.56.56 1.57.6 2.12 0s.59-1.53 0-2.12L5.52 8.24l-.86-.86c-.56-.56-1.57-.6-2.12 0s-.59 1.53 0 2.12Z" class="cls-1"/>
  <path d="M9.43.42 3.4 6.46l-.86.86c-.56.56-.6 1.57 0 2.12s1.53.59 2.12 0L10.7 3.4l.86-.86c.56-.56.6-1.57 0-2.12s-1.53-.59-2.12 0Z" class="cls-1"/>
</svg>
